<svg width="126" height="69" viewBox="0 0 126 69" fill="none" xmlns="http://www.w3.org/2000/svg">
<path d="M61.08 53.0238C60.0379 54.0859 59.4167 55.5288 59.4167 57.1319C59.4167 58.715 60.0179 60.1378 61.0198 61.1999C61.1802 61.3602 61.3605 61.5406 61.5208 61.6809L61.5409 61.7009C62.1821 62.4223 62.5629 63.3642 62.5629 64.3862C62.5629 65.5084 62.102 66.5304 61.3605 67.2518C60.6391 67.9933 59.6171 68.4542 58.4949 68.4542H58.3947C56.1503 68.4542 54.3267 66.6306 54.3267 64.3862C54.3267 63.3441 54.7074 62.4023 55.3687 61.6809C55.529 61.5406 55.6894 61.4003 55.8497 61.24C56.8516 60.1779 57.4729 58.7351 57.4729 57.152C57.4729 55.5488 56.8316 54.0859 55.7896 53.0238C55.6894 52.9236 55.6092 52.8435 55.509 52.7633C54.7675 52.0419 54.3066 51.0199 54.3066 49.8977V49.7975C54.3066 47.5531 56.1302 45.7295 58.3746 45.7295H58.4748C60.7193 45.7295 62.5428 47.5531 62.5428 49.7975V49.8977C62.5428 50.9999 62.102 52.0018 61.3806 52.7433C61.3806 52.7433 61.3605 52.7433 61.3605 52.7633C61.3004 52.8234 61.2002 52.9036 61.08 53.0238C61.1 53.0038 61.08 53.0038 61.08 53.0238Z" fill="#3A4D66"/>
<path d="M58.515 38.6154H58.4148C56.0903 38.6154 54.1865 36.7317 54.1865 34.3871V34.2869C54.1865 31.9623 56.0702 30.0586 58.4148 30.0586H58.515C60.8396 30.0586 62.7434 31.9423 62.7434 34.2869V34.3871C62.7434 36.7317 60.8597 38.6154 58.515 38.6154Z" fill="#3A4D66"/>
<path d="M125.827 63.1639C125.547 62.1619 124.865 61.2802 123.883 60.7391C122.982 60.2581 121.96 60.1379 121.038 60.3383H121.018C120.797 60.4185 120.557 60.4986 120.336 60.5587C118.914 60.9194 117.391 60.7792 116.008 60.0177C115.988 60.0177 115.988 59.9976 115.968 59.9976C114.445 59.156 113.904 57.1921 114.685 55.629C116.228 52.543 117.09 49.0561 117.09 45.3488C117.09 31.742 105.307 20.8807 91.3994 22.4237C80.7986 23.606 72.2818 32.1228 71.0995 42.7236C69.5565 56.631 80.4178 68.4142 94.0246 68.4142C99.9963 68.4142 105.447 66.1497 109.535 62.4024C110.878 61.18 112.822 60.679 114.505 61.3803C114.705 61.4605 114.906 61.5607 115.086 61.6609C116.489 62.4224 117.451 63.6448 117.892 65.0476C117.952 65.268 118.012 65.4684 118.052 65.6888C118.052 65.6888 118.052 65.6888 118.052 65.7089C118.372 66.6307 119.014 67.4122 119.936 67.9132C121.899 68.9753 124.364 68.2539 125.446 66.29L125.486 66.2099C126.048 65.268 126.128 64.1658 125.827 63.1639ZM94.6859 60.0377C86.2693 60.3984 79.3357 53.7053 79.3357 45.3689C79.3357 37.2529 85.9086 30.68 94.0246 30.68C102.381 30.68 109.094 37.6537 108.693 46.0903C108.333 53.585 102.161 59.7171 94.6859 60.0377Z" fill="#3A4D66"/>
<path d="M46.0105 45.249C46.0105 46.3311 45.9304 47.3932 45.77 48.4152C45.75 48.6557 45.7099 48.8962 45.6698 49.1166C45.6698 49.1767 45.6698 49.2369 45.6498 49.317C45.5696 49.7779 45.4694 50.2388 45.3692 50.6997C45.3492 50.8601 45.3091 51.0003 45.2691 51.1406C45.0887 51.8219 44.8883 52.5033 44.6278 53.1646C42.8042 58.2746 39.2171 62.543 34.568 65.2283C31.2214 67.1721 27.2336 68.2943 23.0453 68.2943C10.8213 68.2943 0.861695 58.8357 0.0200394 46.8722C0.0200394 46.752 0.0200394 46.6317 0.0200394 46.5115V46.0306C0 45.77 0 45.5095 0 45.249C0 44.9885 0 44.728 0.0200394 44.4675V18.6767C0.0200394 17.6347 0.420828 16.6928 1.06209 15.9714C1.2224 15.8311 1.38272 15.6909 1.54304 15.5306C2.54501 14.4685 3.16623 13.0256 3.16623 11.4425C3.16623 9.83936 2.52497 8.37648 1.48292 7.31439C1.4228 7.21419 1.3226 7.114 1.20237 7.0138C0.460907 6.29238 0 5.27037 0 4.14816V4.068C0.0200394 1.82359 1.84363 0 4.08804 0H4.1682C6.41261 0 8.2362 1.82359 8.2362 4.068V4.14816C8.2362 5.27037 7.7753 6.27234 7.05388 6.99376C7.05388 6.99376 7.03384 6.99376 7.03384 7.0138C6.93364 7.09396 6.83344 7.19415 6.75328 7.27431C6.75328 7.27431 6.73325 7.27431 6.73325 7.29435C5.71123 8.37648 5.06997 9.81932 5.06997 11.4225C5.06997 13.0056 5.67116 14.4284 6.67313 15.4905C6.83344 15.6508 7.0138 15.8111 7.17411 15.9714L7.19415 15.9915C7.51478 16.3522 7.75526 16.773 7.93561 17.2139C8.15604 17.6948 8.25624 18.2559 8.25624 18.817V26.412L8.27628 26.3919V45.1689C8.27628 45.8702 8.31636 46.5516 8.41656 47.2129C9.45861 54.7878 16.292 60.499 24.2878 59.7776C31.3617 59.1363 37.0729 53.3049 37.5739 46.2109C37.7543 43.726 37.3134 41.3814 36.3716 39.2572C36.2112 38.8765 36.0509 38.5158 35.8505 38.1551C35.7503 37.9547 35.6301 37.7543 35.4898 37.5539C35.1892 37.0329 34.7884 36.5118 34.4077 36.0509C34.1672 35.7303 33.9267 35.4297 33.6462 35.1291C33.4859 34.9488 33.3055 34.7884 33.1452 34.6281C32.9047 34.3876 32.6643 34.1672 32.4037 33.9668C32.1833 33.7865 31.9428 33.6061 31.7224 33.4258C31.522 33.2654 31.3016 33.1252 31.1012 32.9849C29.498 31.8827 27.6744 31.1212 25.7106 30.7605C24.8088 30.5802 23.887 30.5 22.9451 30.5C21.6626 30.5 20.4202 30.6603 19.2178 30.9809C16.773 31.6222 14.3482 29.8788 14.3482 27.3538V27.1133C14.3482 25.0693 15.771 23.3058 17.7549 22.8449C19.4182 22.4642 21.1416 22.2638 22.9251 22.2638C24.6685 22.2638 26.3518 22.4642 27.975 22.8249C28.4961 22.9451 29.0171 23.0654 29.5181 23.2257C29.7786 23.3058 30.0191 23.386 30.2796 23.4662C30.52 23.5463 30.7405 23.6265 30.9609 23.7066C31.3016 23.8269 31.6623 23.9671 32.003 24.1275C32.2835 24.2477 32.5841 24.388 32.8647 24.5283C33.2053 24.6886 33.546 24.8489 33.8666 25.0292C34.1873 25.2096 34.5079 25.3899 34.8285 25.5903C35.2293 25.8308 35.6101 26.0713 35.9908 26.3318C37.113 27.1133 38.1751 28.0151 39.157 28.977C39.6179 29.4379 40.0388 29.8988 40.4596 30.3998C40.7201 30.7004 40.9606 31.021 41.2211 31.3417C41.9625 32.3035 42.6238 33.3256 43.185 34.4077C43.3653 34.7484 43.5256 35.089 43.706 35.4497C43.9865 36.0309 44.3873 37.0329 44.6078 37.634C44.708 37.8946 44.7881 38.135 44.8683 38.3955C44.9685 38.6961 45.0687 39.0168 45.1488 39.3374C45.1488 39.3775 45.1689 39.4376 45.1889 39.4977C45.249 39.7382 45.3091 39.9786 45.3492 40.2191C45.8101 41.8423 46.0105 43.5256 46.0105 45.249Z" fill="#3A4D66"/>
</svg>
