<svg width="126" height="90" viewBox="0 0 126 90" fill="none" xmlns="http://www.w3.org/2000/svg">
<path d="M61.0805 53.3073C60.0384 54.3569 59.4172 55.7828 59.4172 57.3671C59.4172 58.9316 60.0184 60.3377 61.0203 61.3873C61.1807 61.5457 61.361 61.724 61.5213 61.8626L61.5414 61.8824C62.1826 62.5953 62.5634 63.5261 62.5634 64.5361C62.5634 65.6451 62.1025 66.6551 61.361 67.3681C60.6396 68.1008 59.6176 68.5563 58.4954 68.5563H58.3952C56.1508 68.5563 54.3272 66.7542 54.3272 64.5361C54.3272 63.5063 54.7079 62.5755 55.3692 61.8626C55.5295 61.724 55.6899 61.5853 55.8502 61.4269C56.8521 60.3773 57.4734 58.9514 57.4734 57.3869C57.4734 55.8026 56.8321 54.3569 55.79 53.3073C55.6898 53.2083 55.6097 53.129 55.5095 53.0498C54.768 52.3369 54.3071 51.3269 54.3071 50.2179V50.1188C54.3071 47.9008 56.1307 46.0986 58.3751 46.0986H58.4753C60.7197 46.0986 62.5433 47.9008 62.5433 50.1188V50.2179C62.5433 51.3071 62.1025 52.2973 61.381 53.03C61.381 53.03 61.361 53.03 61.361 53.0498C61.3009 53.1092 61.2007 53.1885 61.0805 53.3073C61.1005 53.2875 61.0805 53.2875 61.0805 53.3073Z" fill="#3A4D66"/>
<path d="M58.5155 39.0676H58.4153C56.0908 39.0676 54.187 37.2061 54.187 34.889V34.79C54.187 32.4927 56.0707 30.6113 58.4153 30.6113H58.5155C60.8401 30.6113 62.7438 32.4729 62.7438 34.79V34.889C62.7438 37.2061 60.8601 39.0676 58.5155 39.0676Z" fill="#3A4D66"/>
<path d="M125.828 63.328C125.548 62.3378 124.866 61.4664 123.884 60.9317C122.983 60.4564 121.961 60.3376 121.039 60.5356H121.019C120.798 60.6148 120.558 60.6941 120.337 60.7535C118.915 61.1099 117.392 60.9713 116.009 60.2188C115.989 60.2188 115.989 60.199 115.969 60.199C114.446 59.3672 113.905 57.4264 114.686 55.8817C116.229 52.8319 117.091 49.386 117.091 45.7223C117.091 32.2754 105.308 21.5416 91.4004 23.0665C80.7996 24.235 72.2828 32.6516 71.1005 43.1279C69.5574 56.8719 80.4188 68.5166 94.0256 68.5166C99.9973 68.5166 105.448 66.2788 109.536 62.5754C110.879 61.3674 112.823 60.8723 114.506 61.5654C114.706 61.6446 114.907 61.7437 115.087 61.8427C116.49 62.5952 117.452 63.8033 117.893 65.1896C117.953 65.4074 118.013 65.6054 118.053 65.8233C118.053 65.8233 118.053 65.8233 118.053 65.8431C118.373 66.7541 119.015 67.5264 119.937 68.0215C121.9 69.0711 124.365 68.3582 125.447 66.4174L125.487 66.3382C126.049 65.4074 126.129 64.3182 125.828 63.328ZM94.6869 60.2386C86.2703 60.595 79.3367 53.9805 79.3367 45.7421C79.3367 37.7215 85.9096 31.2258 94.0256 31.2258C102.382 31.2258 109.095 38.1175 108.694 46.455C108.334 53.8617 102.162 59.9217 94.6869 60.2386Z" fill="#3A4D66"/>
<path d="M46.0105 45.6236C46.0105 46.693 45.9304 47.7426 45.77 48.7526C45.75 48.9903 45.7099 49.2279 45.6698 49.4458C45.6698 49.5052 45.6698 49.5646 45.6498 49.6438C45.5696 50.0993 45.4694 50.5548 45.3692 51.0103C45.3492 51.1687 45.3091 51.3073 45.2691 51.446C45.0887 52.1193 44.8883 52.7926 44.6278 53.4462C42.8042 58.4962 39.2171 62.7144 34.568 65.3682C31.2214 67.2891 27.2336 68.3982 23.0453 68.3982C10.8213 68.3982 0.861695 59.0507 0.0200394 47.2277C0.0200394 47.1089 0.0200394 46.9901 0.0200394 46.8713V46.396C0 46.1385 0 45.8811 0 45.6236C0 45.3662 0 45.1087 0.0200394 44.8512V19.3635C0.0200394 18.3337 0.420828 17.403 1.06209 16.69C1.2224 16.5514 1.38272 16.4128 1.54304 16.2543C2.54501 15.2047 3.16623 13.7788 3.16623 12.2143C3.16623 10.63 2.52497 9.18431 1.48292 8.1347C1.4228 8.03568 1.3226 7.93666 1.20237 7.83764C0.460907 7.1247 0 6.11469 0 5.00567V4.92645C0.0200394 2.70841 1.84363 0.90625 4.08804 0.90625H4.1682C6.41261 0.90625 8.2362 2.70841 8.2362 4.92645V5.00567C8.2362 6.11469 7.7753 7.10489 7.05388 7.81783C7.05388 7.81783 7.03384 7.81783 7.03384 7.83764C6.93364 7.91685 6.83344 8.01587 6.75329 8.09509C6.75329 8.09509 6.73325 8.09509 6.73325 8.11489C5.71123 9.18431 5.06997 10.6102 5.06997 12.1945C5.06997 13.759 5.67116 15.1651 6.67313 16.2147C6.83344 16.3731 7.0138 16.5316 7.17411 16.69L7.19415 16.7098C7.51478 17.0663 7.75526 17.4822 7.93561 17.9179C8.15604 18.3932 8.25624 18.9477 8.25624 19.5022V27.0079L8.27628 26.9881V45.5444C8.27628 46.2375 8.31636 46.9109 8.41656 47.5644C9.45861 55.0503 16.292 60.6944 24.2878 59.9815C31.3617 59.3477 37.0729 53.5848 37.5739 46.5742C37.7543 44.1185 37.3134 41.8014 36.3715 39.7022C36.2112 39.3259 36.0509 38.9695 35.8505 38.613C35.7503 38.415 35.6301 38.2169 35.4898 38.0189C35.1892 37.504 34.7884 36.9891 34.4077 36.5336C34.1672 36.2167 33.9267 35.9197 33.6462 35.6226C33.4859 35.4444 33.3055 35.2859 33.1452 35.1275C32.9047 34.8899 32.6643 34.672 32.4037 34.474C32.1833 34.2957 31.9428 34.1175 31.7224 33.9393C31.522 33.7808 31.3016 33.6422 31.1012 33.5036C29.498 32.4144 27.6744 31.6618 25.7106 31.3053C24.8088 31.1271 23.887 31.0479 22.9451 31.0479C21.6626 31.0479 20.4202 31.2063 19.2178 31.5232C16.773 32.1569 14.3482 30.434 14.3482 27.9387V27.701C14.3482 25.681 15.771 23.9383 17.7549 23.4828C19.4182 23.1065 21.1416 22.9085 22.9251 22.9085C24.6685 22.9085 26.3518 23.1065 27.975 23.463C28.4961 23.5818 29.0171 23.7006 29.5181 23.859C29.7786 23.9383 30.0191 24.0175 30.2796 24.0967C30.52 24.1759 30.7405 24.2551 30.9609 24.3343C31.3016 24.4532 31.6623 24.5918 32.003 24.7502C32.2835 24.869 32.5841 25.0077 32.8647 25.1463C33.2053 25.3047 33.546 25.4632 33.8666 25.6414C34.1873 25.8196 34.5079 25.9979 34.8285 26.1959C35.2293 26.4336 35.6101 26.6712 35.9908 26.9287C37.113 27.701 38.1751 28.5922 39.157 29.5428C39.6179 29.9983 40.0388 30.4538 40.4596 30.9489C40.7201 31.2459 40.9606 31.5628 41.2211 31.8797C41.9625 32.8302 42.6238 33.8402 43.185 34.9097C43.3653 35.2463 43.5256 35.583 43.706 35.9395C43.9865 36.5138 44.3873 37.504 44.6078 38.0981C44.708 38.3555 44.7881 38.5932 44.8683 38.8506C44.9685 39.1477 45.0687 39.4646 45.1488 39.7814C45.1488 39.821 45.1689 39.8805 45.1889 39.9399C45.249 40.1775 45.3091 40.4152 45.3492 40.6528C45.8101 42.2569 46.0105 43.9205 46.0105 45.6236Z" fill="#3A4D66"/>
</svg>
