<svg width="89" height="63" viewBox="0 0 89 63" fill="none" xmlns="http://www.w3.org/2000/svg">
<path fill-rule="evenodd" clip-rule="evenodd" d="M72.5001 0.5H71.4062L71.0719 1.54156L58.4062 41H3.50008V44H59.5001H60.594L60.9283 42.9584L73.594 3.5H89.0001V0.5H72.5001ZM3.00008 6H0.918945L1.57706 7.97434L10.5771 34.9743L10.9189 36H12.0001H51.5001H52.5812L52.9231 34.9743L61.9231 7.97434L62.5812 6H60.5001H3.00008ZM13.0812 33L5.08122 9H58.4189L50.4189 33H13.0812ZM14.0001 60C17.3138 60 20.0001 57.3137 20.0001 54C20.0001 50.6863 17.3138 48 14.0001 48C10.6864 48 8.00008 50.6863 8.00008 54C8.00008 57.3137 10.6864 60 14.0001 60ZM14.0001 63C18.9706 63 23.0001 58.9706 23.0001 54C23.0001 49.0294 18.9706 45 14.0001 45C9.02952 45 5.00008 49.0294 5.00008 54C5.00008 58.9706 9.02952 63 14.0001 63ZM55.0001 54C55.0001 57.3137 52.3138 60 49.0001 60C45.6864 60 43.0001 57.3137 43.0001 54C43.0001 50.6863 45.6864 48 49.0001 48C52.3138 48 55.0001 50.6863 55.0001 54ZM58.0001 54C58.0001 58.9706 53.9706 63 49.0001 63C44.0295 63 40.0001 58.9706 40.0001 54C40.0001 49.0294 44.0295 45 49.0001 45C53.9706 45 58.0001 49.0294 58.0001 54Z" fill="#3A4D66"/>
</svg>
